<?xml version="1.0" encoding="UTF-8"?>
<svg id="Layer_2" data-name="Layer 2" xmlns="http://www.w3.org/2000/svg" viewBox="0 0 150.94 170.54">
  <defs>
    <style>
      .cls-1 {
        fill: #000;
      }

      .cls-1, .cls-2 {
        stroke-width: 0px;
      }

      .cls-2 {
        fill: #070708;
      }
    </style>
  </defs>
  <g id="Layer_1-2" data-name="Layer 1">
    <g>
      <path class="cls-1" d="M61.76,93.97c4.88.2,9.38.59,9.38.59,3.32.2,2.93,5.27-.39,5.08,0,0-11.72-.78-17.97-.78s-17.97.78-17.97.78c-3.32.2-3.71-4.69-.39-5.08,0,0,4.3-.39,9.38-.59v-22.47c-15.04,0-30.48,3.32-38.49,11.33-2.54,2.54-6.25.59-5.08-2.34,4.3-10.55,8.21-18.17,13.87-28.72,3.52-6.64,7.42-15.43,7.42-22.66,0-11.72-5.67-15.04-5.67-20.9,0-4.69,3.52-8.21,7.81-8.21,6.45,0,9.77,5.67,9.77,15.63,0,14.65-11.53,32.82-14.65,38.49-2.93,5.27-5.27,9.77-7.42,14.26,5.27-.59,21.49-2.15,32.43-2.15V31.84l8.99.2c6.06,0,17.97-.78,17.97-.78,3.32-.2,3.71,4.69.39,5.08,0,0-4.3.39-9.38.59v29.69c1.76.2,4.49.2,5.86.2,7.03,0,11.92-.2,17.97-.98,3.32-.39,3.91,4.69.39,5.08-5.86.78-10.94,1.17-18.36,1.17-1.37,0-4.1,0-5.86-.2v22.08Z"/>
      <path class="cls-1" d="M123.59,136.84l-31.86-14.01c-7.17-3.17-15.34-7.67-15.34-18.85,0-18.85,23.35-25.35,38.36-25.35,20.35,0,27.02,10.17,27.02,18.85s-6.34,14.84-13.34,14.84c-3.84,0-7.01-3.17-7.01-7.01s3-6.34,6.17-7.01c3.5-.67,5.34-2.33,5.34-5.17,0-3.34-3.5-10.01-17.85-10.01-11.68,0-22.52,5.67-22.52,15.68,0,7.84,6,11.17,11.18,13.51l31.69,14.01c7.17,3.17,15.51,7.84,15.51,18.85,0,17.51-20.85,25.35-38.2,25.35-19.35,0-39.03-10.01-39.03-24.52,0-5.84,4.67-8.67,9.01-8.67,5.5,0,7.67,4.17,9.67,9.84,2.84,8.01,6.67,18.85,22.02,18.85,12.18,0,20.35-7.51,20.35-15.85,0-7.51-6-11.01-11.17-13.34Z"/>
      <path class="cls-2" d="M33.35,67.36c8.34.94,19.58-2.3,27.97-2.07,2.89.08,21.43.26,22.55.13,3.41-.4,8.35-4.2,10.81-4.48,2.57-.3,5.95.67,8.57.79,5.5.26,12.76-.66,18.46-.66v1.05c-2.43.33-15.83.65-16.62.92-1.24.43-.79,2.25.4,2.51.96.21,13.52-.48,16.09-.66l.33.4c-.02.27.11.79-.2.92-.75.33-14.3.26-16.42.86.05.64-.27,1.88.59,2.04.78.15,13.58-.6,15.96-.66v1.45c-2.17.3-15.74.3-16.48.66-.82.39-.37,1.78.4,1.98.78.2,13.96-.83,16.15-.92-.12.95.42,1.22-.73,1.45-1.88.37-12.77.58-16.48.92-2.37.22-4.75.65-7.12.92-.35.04-1.59.53-1.71.53-.66,0-4-1.9-4.81-2.37-1.49-.86-2.73-2.06-4.35-2.77-5.48-2.39-20.29-1.92-26.7-1.71-5.89.19-11.86.6-17.74,1.05-.8.06-1.59.07-2.37.13l-6.54-2.42Z"/>
    </g>
  </g>
</svg>